# xmcd
#
# Track frame offsets: 
#        150
#        18078
#        45685
#        66605
#        77033
#        97448
#        114015
#        133637
#        150608
#        171241
#        181377
#        205566
#        231616
#        244829
#
# Disc length: 3501 seconds
#
# Revision: 8
# Processed by: cddbd v1.5.2PL0 Copyright (c) Steve Scherf et al.
# Submitted via: ExactAudioCopy v0.99pb5
#
DISCID=bf0dab0e
DTITLE=MIKE OLDFIELD - Tr3s Lunas
DYEAR=2002
DGENRE=Progressive Rock
TTITLE0=Misty
TTITLE1=No Mans Land
TTITLE2=Return To The Origin
TTITLE3=Landfall
TTITLE4=Viper
TTITLE5=Turtle Island
TTITLE6=To Be Free
TTITLE7=Firefly
TTITLE8=Tres Lunas
TTITLE9=Daydream
TTITLE10=Thou Art In Heaven
TTITLE11=Sirius
TTITLE12=No Mans Land (Reprise)
TTITLE13=To Be Free (Radio Edit)
EXTD=YEAR: 2002
EXTT0=
EXTT1=
EXTT2=
EXTT3=
EXTT4=
EXTT5=
EXTT6=
EXTT7=
EXTT8=
EXTT9=
EXTT10=
EXTT11=
EXTT12=
EXTT13=
PLAYORDER=
